{
  "accessors": [
    {
      "bufferView": 2,
      "componentType": 5126,
      "count": 33387,
      "max": [
        0.24546000361442566,
        0.85006999969482422,
        0.32302001118659973
      ],
      "min": [
        -0.24048000574111938,
        -0.0086799999698996544,
        -0.40178000926971436
      ],
      "type": "VEC3"
    },
    {
      "bufferView": 2,
      "byteOffset": 400644,
      "componentType": 5126,
      "count": 33387,
      "max": [
        1,
        1,
        1
      ],
      "min": [
        -1,
        -1,
        -1
      ],
      "type": "VEC3"
    },
    {
      "bufferView": 3,
      "componentType": 5126,
      "count": 33387,
      "max": [
        1,
        1,
        1,
        1
      ],
      "min": [
        -1,
        -1,
        -1,
        1
      ],
      "type": "VEC4"
    },
    {
      "bufferView": 1,
      "componentType": 5126,
      "count": 33387,
      "max": [
        0.97044998407363892,
        0.99664002656936646
      ],
      "min": [
        0.0033400000538676977,
        0.0032500000670552254
      ],
      "type": "VEC2"
    },
    {
      "bufferView": 0,
      "componentType": 5125,
      "count": 172716,
      "max": [
        33386
      ],
      "min": [
        0
      ],
      "type": "SCALAR"
    },
    {
      "bufferView": 2,
      "byteOffset": 801288,
      "componentType": 5126,
      "count": 8,
      "max": [
        0.47288000583648682,
        0.39956998825073242,
        1.5155999660491943
      ],
      "min": [
        -0.47288000583648682,
        -1,
        0
      ],
      "type": "VEC3"
    },
    {
      "bufferView": 2,
      "byteOffset": 801384,
      "componentType": 5126,
      "count": 8,
      "max": [
        0,
        0,
        1
      ],
      "min": [
        0,
        -1,
        -0
      ],
      "type": "VEC3"
    },
    {
      "bufferView": 3,
      "byteOffset": 534192,
      "componentType": 5126,
      "count": 8,
      "max": [
        -1,
        0,
        0,
        1
      ],
      "min": [
        -1,
        0,
        0,
        1
      ],
      "type": "VEC4"
    },
    {
      "bufferView": 1,
      "byteOffset": 267096,
      "componentType": 5126,
      "count": 8,
      "max": [
        0.32444998621940613,
        0.99993997812271118
      ],
      "min": [
        5.999999848427251e-05,
        5.999999848427251e-05
      ],
      "type": "VEC2"
    },
    {
      "bufferView": 0,
      "byteOffset": 690864,
      "componentType": 5125,
      "count": 12,
      "max": [
        7
      ],
      "min": [
        0
      ],
      "type": "SCALAR"
    },
    {
      "bufferView": 2,
      "byteOffset": 801480,
      "componentType": 5126,
      "count": 32,
      "max": [
        0.66220998764038086,
        1.1855000257492065,
        0.59271001815795898
      ],
      "min": [
        -0.51181000471115112,
        -1.6534299850463867,
        -0.46876001358032227
      ],
      "type": "VEC3"
    },
    {
      "bufferView": 2,
      "byteOffset": 801864,
      "componentType": 5126,
      "count": 32,
      "max": [
        1,
        0.15343968570232391,
        1
      ],
      "min": [
        -0.99099224805831909,
        -0.13250021636486053,
        -0.1320502907037735
      ],
      "type": "VEC3"
    },
    {
      "bufferView": 3,
      "byteOffset": 534320,
      "componentType": 5126,
      "count": 32,
      "max": [
        0.037291690707206726,
        0.10141602903604507,
        1,
        1
      ],
      "min": [
        -1,
        -0.15342479944229126,
        -0.13208533823490143,
        -1
      ],
      "type": "VEC4"
    },
    {
      "bufferView": 1,
      "byteOffset": 267160,
      "componentType": 5126,
      "count": 32,
      "max": [
        0.23380999267101288,
        0.99321997165679932
      ],
      "min": [
        0.039629999548196793,
        0.014589999802410603
      ],
      "type": "VEC2"
    },
    {
      "bufferView": 0,
      "byteOffset": 690912,
      "componentType": 5125,
      "count": 48,
      "max": [
        31
      ],
      "min": [
        0
      ],
      "type": "SCALAR"
    },
    {
      "bufferView": 2,
      "byteOffset": 802248,
      "componentType": 5126,
      "count": 48,
      "max": [
        0.082659997045993805,
        0.020169999450445175,
        0.64573997259140015
      ],
      "min": [
        -0.1563899964094162,
        -0.22980999946594238,
        0.29063001275062561
      ],
      "type": "VEC3"
    },
    {
      "bufferView": 2,
      "byteOffset": 802824,
      "componentType": 5126,
      "count": 48,
      "max": [
        0,
        0,
        -0
      ],
      "min": [
        -1,
        -1,
        -0
      ],
      "type": "VEC3"
    },
    {
      "bufferView": 3,
      "byteOffset": 534832,
      "componentType": 5126,
      "count": 48,
      "max": [
        1,
        0,
        0,
        1
      ],
      "min": [
        0,
        -1,
        0,
        1
      ],
      "type": "VEC4"
    },
    {
      "bufferView": 1,
      "byteOffset": 267416,
      "componentType": 5126,
      "count": 48,
      "max": [
        0.98454999923706055,
        0.9863399863243103
      ],
      "min": [
        0.011029999703168869,
        0.02565000019967556
      ],
      "type": "VEC2"
    },
    {
      "bufferView": 0,
      "byteOffset": 691104,
      "componentType": 5125,
      "count": 72,
      "max": [
        47
      ],
      "min": [
        0
      ],
      "type": "SCALAR"
    },
    {
      "bufferView": 2,
      "byteOffset": 803400,
      "componentType": 5126,
      "count": 8,
      "max": [
        -0.25115001201629639,
        0.01484999991953373,
        0.11620999872684479
      ],
      "min": [
        -0.7120400071144104,
        -0.21758000552654266,
        -0.11620999872684479
      ],
      "type": "VEC3"
    },
    {
      "bufferView": 2,
      "byteOffset": 803496,
      "componentType": 5126,
      "count": 8,
      "max": [
        0,
        -0,
        1
      ],
      "min": [
        0,
        -1,
        -0
      ],
      "type": "VEC3"
    },
    {
      "bufferView": 3,
      "byteOffset": 535600,
      "componentType": 5126,
      "count": 8,
      "max": [
        0,
        1,
        1,
        1
      ],
      "min": [
        0,
        0,
        0,
        1
      ],
      "type": "VEC4"
    },
    {
      "bufferView": 1,
      "byteOffset": 267800,
      "componentType": 5126,
      "count": 8,
      "max": [
        0.76229000091552734,
        0.95661002397537231
      ],
      "min": [
        0.23770999908447266,
        0.049830000847578049
      ],
      "type": "VEC2"
    },
    {
      "bufferView": 0,
      "byteOffset": 691392,
      "componentType": 5125,
      "count": 12,
      "max": [
        7
      ],
      "min": [
        0
      ],
      "type": "SCALAR"
    }
  ],
  "asset": {
    "extras": {
      "author": "Adipriatna (https://sketchfab.com/adipriatna)",
      "license": "CC-BY-4.0 (http://creativecommons.org/licenses/by/4.0/)",
      "source": "https://sketchfab.com/3d-models/toilet-with-relaxing-music-90d7b2b543d141708295171fab1f0f60",
      "title": "Toilet With Relaxing Music"
    },
    "generator": "Sketchfab-5.54.1",
    "version": "2.0"
  },
  "bufferViews": [
    {
      "buffer": 0,
      "byteLength": 691440,
      "byteOffset": 0,
      "name": "floatBufferViews",
      "target": 34963
    },
    {
      "buffer": 0,
      "byteLength": 267864,
      "byteOffset": 691440,
      "byteStride": 8,
      "name": "floatBufferViews",
      "target": 34962
    },
    {
      "buffer": 0,
      "byteLength": 803592,
      "byteOffset": 959304,
      "byteStride": 12,
      "name": "floatBufferViews",
      "target": 34962
    },
    {
      "buffer": 0,
      "byteLength": 535728,
      "byteOffset": 1762896,
      "byteStride": 16,
      "name": "floatBufferViews",
      "target": 34962
    }
  ],
  "buffers": [
    {
      "byteLength": 2298624,
      "uri": "scene.bin"
    }
  ],
  "images": [
    {
      "uri": "textures/bias_baseColor.png"
    },
    {
      "uri": "textures/bias_emissive.png"
    },
    {
      "uri": "textures/beam_kecil_baseColor.png"
    },
    {
      "uri": "textures/SUN_BEAM_baseColor.png"
    },
    {
      "uri": "textures/SUN_BEAM_emissive.png"
    },
    {
      "uri": "textures/tembok_baseColor.png"
    },
    {
      "uri": "textures/tembok_metallicRoughness.png"
    },
    {
      "uri": "textures/tembok_normal.png"
    },
    {
      "uri": "textures/material_baseColor.png"
    },
    {
      "uri": "textures/material_metallicRoughness.png"
    },
    {
      "uri": "textures/material_normal.png"
    }
  ],
  "materials": [
    {
      "alphaMode": "BLEND",
      "doubleSided": true,
      "emissiveFactor": [
        1,
        1,
        1
      ],
      "emissiveTexture": {
        "index": 1,
        "texCoord": 0
      },
      "name": "bias",
      "pbrMetallicRoughness": {
        "baseColorFactor": [
          1,
          1,
          1,
          0.0078125
        ],
        "baseColorTexture": {
          "index": 0,
          "texCoord": 0
        },
        "metallicFactor": 1,
        "roughnessFactor": 0.59999999999999998
      }
    },
    {
      "alphaMode": "BLEND",
      "doubleSided": true,
      "emissiveFactor": [
        1,
        1,
        1
      ],
      "name": "beam_kecil",
      "pbrMetallicRoughness": {
        "baseColorFactor": [
          1,
          1,
          1,
          0.074885670700000004
        ],
        "baseColorTexture": {
          "index": 2,
          "texCoord": 0
        },
        "metallicFactor": 1,
        "roughnessFactor": 0
      }
    },
    {
      "alphaMode": "BLEND",
      "doubleSided": true,
      "emissiveFactor": [
        1,
        1,
        1
      ],
      "emissiveTexture": {
        "index": 4,
        "texCoord": 0
      },
      "name": "SUN_BEAM",
      "pbrMetallicRoughness": {
        "baseColorFactor": [
          1,
          1,
          1,
          0.038300304899999998
        ],
        "baseColorTexture": {
          "index": 3,
          "texCoord": 0
        },
        "metallicFactor": 0,
        "roughnessFactor": 1
      }
    },
    {
      "alphaMode": "BLEND",
      "doubleSided": true,
      "name": "tembok",
      "normalTexture": {
        "index": 7,
        "scale": 0.7334222561,
        "texCoord": 0
      },
      "pbrMetallicRoughness": {
        "baseColorFactor": [
          1,
          1,
          1,
          1
        ],
        "baseColorTexture": {
          "index": 5,
          "texCoord": 0
        },
        "metallicFactor": 1,
        "metallicRoughnessTexture": {
          "index": 6,
          "texCoord": 0
        },
        "roughnessFactor": 1
      }
    },
    {
      "doubleSided": true,
      "name": "material",
      "normalTexture": {
        "index": 10,
        "scale": 1,
        "texCoord": 0
      },
      "pbrMetallicRoughness": {
        "baseColorFactor": [
          1,
          1,
          1,
          1
        ],
        "baseColorTexture": {
          "index": 8,
          "texCoord": 0
        },
        "metallicFactor": 0,
        "metallicRoughnessTexture": {
          "index": 9,
          "texCoord": 0
        },
        "roughnessFactor": 1
      }
    }
  ],
  "meshes": [
    {
      "name": "C_Low_0",
      "primitives": [
        {
          "attributes": {
            "NORMAL": 1,
            "POSITION": 0,
            "TANGENT": 2,
            "TEXCOORD_0": 3
          },
          "indices": 4,
          "material": 4,
          "mode": 4
        }
      ]
    },
    {
      "name": "Plane_0",
      "primitives": [
        {
          "attributes": {
            "NORMAL": 6,
            "POSITION": 5,
            "TANGENT": 7,
            "TEXCOORD_0": 8
          },
          "indices": 9,
          "material": 3,
          "mode": 4
        }
      ]
    },
    {
      "name": "Plane.001_0",
      "primitives": [
        {
          "attributes": {
            "NORMAL": 11,
            "POSITION": 10,
            "TANGENT": 12,
            "TEXCOORD_0": 13
          },
          "indices": 14,
          "material": 2,
          "mode": 4
        }
      ]
    },
    {
      "name": "Plane.004_0",
      "primitives": [
        {
          "attributes": {
            "NORMAL": 16,
            "POSITION": 15,
            "TANGENT": 17,
            "TEXCOORD_0": 18
          },
          "indices": 19,
          "material": 1,
          "mode": 4
        }
      ]
    },
    {
      "name": "Plane.002_0",
      "primitives": [
        {
          "attributes": {
            "NORMAL": 21,
            "POSITION": 20,
            "TANGENT": 22,
            "TEXCOORD_0": 23
          },
          "indices": 24,
          "material": 0,
          "mode": 4
        }
      ]
    }
  ],
  "nodes": [
    {
      "children": [
        1
      ],
      "name": "RootNode (gltf orientation matrix)",
      "rotation": [
        -0.70710678118654746,
        -0,
        -0,
        0.70710678118654757
      ]
    },
    {
      "children": [
        2
      ],
      "name": "RootNode (model correction matrix)"
    },
    {
      "children": [
        3,
        5,
        7,
        9,
        11
      ],
      "name": "Root"
    },
    {
      "children": [
        4
      ],
      "matrix": [
        1,
        0,
        0,
        0,
        0,
        -0,
        1,
        0,
        0,
        -1,
        -0,
        0,
        0,
        0,
        0,
        1
      ],
      "name": "C_Low"
    },
    {
      "mesh": 0,
      "name": "C_Low_0"
    },
    {
      "children": [
        6
      ],
      "name": "Plane"
    },
    {
      "mesh": 1,
      "name": "Plane_0"
    },
    {
      "children": [
        8
      ],
      "matrix": [
        0,
        -0.80047999999999997,
        -0.59936,
        0,
        -0,
        0.59936,
        -0.80047999999999997,
        0,
        1,
        0,
        0,
        0,
        -0.093350000000000016,
        -0.83245000000000002,
        1.39632,
        1
      ],
      "name": "Plane.001"
    },
    {
      "mesh": 2,
      "name": "Plane.001_0"
    },
    {
      "children": [
        10
      ],
      "name": "Plane.004"
    },
    {
      "mesh": 3,
      "name": "Plane.004_0"
    },
    {
      "children": [
        12
      ],
      "matrix": [
        0,
        0,
        -1,
        0,
        -0,
        1,
        -0,
        0,
        1,
        0,
        0,
        0,
        -0.010290000000000002,
        0,
        0,
        1
      ],
      "name": "Plane.002"
    },
    {
      "mesh": 4,
      "name": "Plane.002_0"
    }
  ],
  "samplers": [
    {
      "magFilter": 9729,
      "minFilter": 9987,
      "wrapS": 10497,
      "wrapT": 10497
    }
  ],
  "scene": 0,
  "scenes": [
    {
      "name": "OSG_Scene",
      "nodes": [
        0
      ]
    }
  ],
  "textures": [
    {
      "sampler": 0,
      "source": 0
    },
    {
      "sampler": 0,
      "source": 1
    },
    {
      "sampler": 0,
      "source": 2
    },
    {
      "sampler": 0,
      "source": 3
    },
    {
      "sampler": 0,
      "source": 4
    },
    {
      "sampler": 0,
      "source": 5
    },
    {
      "sampler": 0,
      "source": 6
    },
    {
      "sampler": 0,
      "source": 7
    },
    {
      "sampler": 0,
      "source": 8
    },
    {
      "sampler": 0,
      "source": 9
    },
    {
      "sampler": 0,
      "source": 10
    }
  ]
}

